<svg xmlns="http://www.w3.org/2000/svg" xmlns:xlink="http://www.w3.org/1999/xlink" viewBox="0 0 2000 700"><style>.st0{fill:#f9f9f9}.st1{clip-path:url(#SVGID_2_)}.st2,.st3{fill:#f2f2f2;stroke:#d8d8d8;stroke-width:3.5;stroke-linecap:round;stroke-linejoin:round}.st3{fill:#f9f9f9;stroke:#7d7d7d}.st4{fill:#c8ec84}.st10,.st11,.st12,.st5,.st6,.st7,.st8,.st9{fill:none;stroke:#e0e0e0;stroke-width:3.5;stroke-linecap:round;stroke-linejoin:round}.st10,.st11,.st12,.st6,.st7,.st8,.st9{stroke:#7d7d7d}.st10,.st11,.st12,.st7,.st8,.st9{fill:#efefef;stroke:#efefef;stroke-width:2}.st10,.st11,.st12,.st8,.st9{fill:#f2f2f2;stroke:#f2f2f2}.st10,.st11,.st12,.st9{fill:none;stroke:#b0e650;stroke-width:3.5}.st10,.st11,.st12{fill:#f6f6f6;stroke:#7d7d7d}.st11,.st12{fill:#d3f7fe}.st12{fill:#999}.st13{fill:#e0e0e0}.st14{fill:#fff;stroke:#ccc;stroke-width:2;stroke-linecap:round;stroke-linejoin:round}.st15{opacity:.5}.st16{fill:#cbcbcb}.st17{fill:#5bbc2e}.st18{fill:#b0e44f}.st19{fill:#d3f7fe}.st20{fill:#ccc}.st21,.st22,.st23{fill:#a1edfe;stroke:#7d7d7d;stroke-width:3.5;stroke-linecap:round;stroke-linejoin:round}.st22,.st23{fill:#9aecfd}.st23{fill:none;stroke:#c3f4fe}.st24{fill:#79e6fd}.st25{fill:#b5f1fe}.st26{fill:#73e6ff}.st27,.st28,.st29,.st30{fill:#73e6ff;stroke:#00e6ff;stroke-width:1.53;stroke-linecap:round;stroke-linejoin:round}.st28,.st29,.st30{fill:none;stroke:#73e6ff}.st29,.st30{fill:#a9e98f;stroke:#5bbc2e;stroke-width:1.83}.st30{fill:none;stroke-width:1.9}.st31{font-family:'Gotham-Bold'}.st32{font-size:14.86px}.st33{fill:#d8d8d8}.st34{fill:none;stroke:#7d7d7d;stroke-width:2.33;stroke-linecap:round;stroke-linejoin:round}.st35{fill:#9ae57c}</style><title>hero-desktop</title><path class="st0" d="M0 0h2000v700H0z"/><defs><path id="SVGID_1_" d="M1.2 0h1997.5v700H1.2z"/></defs><clipPath id="SVGID_2_"><use xlink:href="#SVGID_1_" overflow="visible"/></clipPath><g class="st1"><path class="st2" d="M380.4 203.8l.1 188.2c0 14.7-11.9 26.7-26.7 26.7H213.9c-14.7 0-26.7-11.9-26.7-26.7V-35.8h21.7V387c0 4.8 3.9 8.6 8.6 8.6h132.7c4.8 0 8.6-3.9 8.6-8.6V203.8l.5-56.7c0-27.2 22.1-49.3 49.3-49.3l140.9.2c27.2 0 49.8 22.1 49.8 49.3v66.8c0 4.8 3.9 8.6 8.6 8.6h72.7c4.8 0 8.6-3.9 8.6-8.6v-337.8h21.7V219c0 14.7-11.9 26.7-26.7 26.7h-79.9c-14.7 0-26.7-11.9-26.7-26.7l.2-65.4v-6.3c0-16.9-13.7-30.7-30.7-30.7l-136.1-.2c-16.9 0-30.6 13.7-30.6 30.6v56.8z"/><path class="st3" d="M103.6 488.4V253.2c0-24.7 20-44.7 44.7-44.7h304.3c24.7 0 44.7 20 44.7 44.7v46.6h38.3v-48.2c0-44-35.7-79.7-79.7-79.7H147.3c-44 0-79.7 35.7-79.7 79.7v236.8h36z"/><path class="st2" d="M1698.4 152.2c0-16.9-13.7-30.7-30.7-30.7l-171.2.2c-16.9 0-30.6 13.7-30.6 30.7v6.3l.2 50.4c0 14.7-11.9 26.7-26.7 26.7h-109.9c-14.7 0-26.7-11.9-26.7-26.7v-339.5h21.7v334.5c0 4.8 3.9 8.6 8.6 8.6h102.7c4.8 0 8.6-3.9 8.6-8.6v-51.8c0-27.2 22.5-49.3 49.8-49.3l175.8-.2c27.2 0 49.3 22.1 49.3 49.3v1.8l.7 294.2c0 4.8 3.9 8.6 8.6 8.6h72.7c4.8 0 8.6-3.9 8.6-8.6V-51.5h21.7v504.7c0 14.7-11.9 26.7-26.7 26.7H1725c-14.7 0-26.7-11.9-26.7-26.7l.1-301z"/><path class="st3" d="M1946.4 476.4V239.6c0-44-35.7-79.7-79.7-79.7H1588c-44 0-79.7 35.7-79.7 79.7v61.2h38.3v-59.6c0-24.7 20-44.7 44.7-44.7h274.3c24.7 0 44.7 20 44.7 44.7v235.1h36.1z"/><path class="st4" d="M1897 487h64.1c2.6 0 4.6 2.1 4.6 4.6v81.9c0 2.6-2.1 4.6-4.6 4.6H1897c-2.6 0-4.6-2.1-4.6-4.6v-81.9c0-2.5 2-4.6 4.6-4.6z"/><path class="st5" d="M1917 439.9v36.5m-377 6.8v31.4m0 48.3v51.8m48.4-425.3c-25.6 0-48.3 22.8-48.3 48.4m376.9-.1c0-25.6-21.8-47.4-47.3-47.4"/><path class="st6" d="M1910.4 417.2h35m-35-65.3h35m-35-65.4h35m-435-10h35m107.2-115v35m81.2-35v35m76.1-35v35m98.3 31.6l33.3-11m-59.3-55.1l-7.7 34.1m-327.9 32l-33.3-11m59.3-55.1l7.7 34.1"/><path class="st7" d="M1852.8 294.4c1.7 1.7 1.7 4.4 0 6.1-1.4 1.4-3.6 1.7-5.3.6-1.1 2.1-1.7 4.4-2 6.8 2.4 0 4.3 2 4.3 4.3 0 2-1.4 3.7-3.3 4.2.8 2.3 1.9 4.4 3.4 6.2 1.7-1.7 4.4-1.7 6.1 0 1.4 1.4 1.7 3.6.6 5.3 2.2 1.1 4.5 1.8 6.9 2-.2-2.4 1.6-4.4 4-4.6 2.2-.1 4.1 1.4 4.5 3.6 2.3-.8 4.4-2 6.2-3.5-1.8-1.6-1.9-4.3-.3-6.1 1.4-1.6 3.8-1.9 5.6-.7 1.1-2.1 1.7-4.5 1.9-6.9-2.4 0-4.3-1.9-4.3-4.3 0-2 1.4-3.7 3.3-4.2-.8-2.3-1.9-4.3-3.5-6.2-1.7 1.7-4.4 1.7-6.1 0-1.4-1.4-1.7-3.6-.6-5.3-2.1-1-4.4-1.7-6.8-1.9 0 2.4-1.9 4.3-4.3 4.3-2 0-3.8-1.4-4.2-3.3-2.2.9-4.3 2.1-6.1 3.6zm14.9 8.1c4.1 1.2 6.5 5.5 5.2 9.6-1.2 4.1-5.5 6.5-9.6 5.2-4.1-1.2-6.5-5.5-5.2-9.6 1.1-4 5.4-6.4 9.6-5.2zm-20.9-60.9c3-.9 6.2.8 7.2 3.9.8 2.6-.4 5.4-2.7 6.7 1.8 2.6 4.1 4.9 6.7 6.6 1.5-2.8 5-3.8 7.8-2.3 2.3 1.3 3.5 4 2.8 6.6 3.1.6 6.4.6 9.5 0-.9-3 .8-6.3 3.8-7.2 2.6-.8 5.4.3 6.7 2.8 2.6-1.8 4.9-4.1 6.7-6.8-2.9-1.4-4.1-4.8-2.7-7.7 1.3-2.6 4.2-3.9 7-3 .5-3.2.5-6.4-.1-9.5-3 1-6.3-.6-7.3-3.5-.9-2.7.3-5.7 2.8-7-1.8-2.6-4.1-4.9-6.8-6.6-1.5 2.8-5 3.8-7.8 2.3-2.4-1.3-3.5-4-2.8-6.6-3.1-.5-6.3-.5-9.5.1.9 3-.8 6.2-3.9 7.1-2.6.8-5.3-.3-6.6-2.7-2.6 1.8-4.8 4.1-6.6 6.7 2.8 1.5 3.8 5 2.3 7.8-1.3 2.4-4 3.5-6.6 2.8-.5 3.2-.5 6.4.1 9.5zm19-12.2c4-4 10.6-4 14.6 0s4 10.6 0 14.6-10.6 4-14.6 0c-4.1-4-4-10.6 0-14.6z"/><path class="st8" d="M1901.8 276.3c-.4-2.9-1.7-5.7-3.7-7.8l-.2-.3c-1.7 2.2-4.8 2.6-7 1-1.7-1.3-2.4-3.4-1.8-5.4-2.7-.4-5.4 0-7.8 1.1 1.4 2.4.7 5.4-1.7 6.9-1.7 1-3.9.9-5.6-.3-1.3 2.4-1.9 5-1.8 7.7 2.7-.6 5.3 1.2 5.9 3.9.4 2.1-.5 4.1-2.3 5.2l.2.3c2 2.2 4.6 3.7 7.4 4.4.2-2.8 2.6-4.8 5.4-4.6 2.1.2 3.9 1.6 4.4 3.7 2.8-1.3 5.1-3.4 6.6-6-2.6-1-3.9-3.9-2.9-6.4.9-2.1 2.8-3.4 4.9-3.4zm-11 6.4c-2.3 2.1-5.8 1.9-7.9-.4-2.1-2.3-1.9-5.8.4-7.9 2.3-2.1 5.8-1.9 7.9.4 2.1 2.2 2 5.8-.4 7.9.1 0 .1 0 0 0z"/><path class="st9" d="M1900.6 487v30.6m7.6-30.6v25.9"/><path class="st6" d="M1547.9 728.8V464.6m-38 39.8h35m-32.5 70.5h35m-35 78.3h35m-37.5 75.6V464.7M1897 487h64.1c2.6 0 4.6 2.1 4.6 4.6v81.9c0 2.6-2.1 4.6-4.6 4.6H1897c-2.6 0-4.6-2.1-4.6-4.6v-81.9c0-2.5 2-4.6 4.6-4.6z"/><path class="st10" d="M1410.3 310.9h235.5v143.6h-235.5z"/><path class="st11" d="M1422 323.5h212v118.4h-212z"/><path class="st6" d="M1552 305.1v-4.3h-48.1v4.3m54.5 4.7v-4.4h-60.9v4.4m6.4 150.4v4.4h48.1v-4.4m-54.5-4.7v4.4h60.9v-4.4"/><path class="st12" d="M1905.4 476.4h47.2v10.5h-47.2z"/><path class="st6" d="M1924.9 481.7h27.7"/><path class="st5" d="M1540 522.9v5m399.7 69.3v31.4m0 48.4v51.8"/><path class="st6" d="M1947.6 772.3V588.6m-38 29.9h35m-32.5 70.5h35m-37.5 83.3V588.8"/><path class="st5" d="M1939.7 637v5"/><path class="st4" d="M166.9 590.1v-81.9c0-5.1-2.1-9.2-4.6-9.2H52.9c-2.5 0-4.6 4.1-4.6 9.2v81.9"/><path class="st5" d="M96.9 451.9v36.5m407.1 6.8v31.4m0 95.9v42m-48.4-463.1c25.6 0 48.4 22.8 48.4 48.4m-407.1-.1c0-25.6 21.8-47.4 47.3-47.4"/><path class="st6" d="M103.6 429.2h-35m35-65.3h-35m35-65.4h-35m464.9-25h-35m-107.1-100v35m-76.2-35v35m-101.1-35v35m-108.4 31.6l-33.2-11m59.3-55.1l7.7 34.1m357.9 32l33.3-11M471.4 174l-7.7 34.1"/><path class="st7" d="M158 306.5c-.5 2.3-2.8 3.8-5.2 3.2-2-.5-3.4-2.2-3.3-4.2-2.4.2-4.7.9-6.8 1.9 1.2 2 .6 4.7-1.4 5.9-1.7 1-3.9.8-5.3-.6-1.5 1.8-2.7 3.9-3.5 6.2 2.3.6 3.7 2.9 3.2 5.2-.5 1.9-2.2 3.3-4.2 3.3.2 2.4.9 4.7 1.9 6.9 2-1.3 4.6-.8 6 1.1 1.2 1.8.9 4.2-.7 5.6 1.9 1.5 4 2.7 6.2 3.5.4-2.3 2.6-3.9 5-3.5 2.2.4 3.7 2.3 3.6 4.5 2.4-.2 4.7-.9 6.9-2-1.3-2-.7-4.7 1.3-5.9 1.7-1.1 3.9-.8 5.3.6 1.5-1.9 2.7-4 3.4-6.2-2.3-.5-3.8-2.8-3.2-5.2.4-1.9 2.2-3.3 4.2-3.3-.3-2.4-.9-4.7-2-6.8-2 1.3-4.7.7-5.9-1.3-1.1-1.7-.8-3.9.6-5.3-1.8-1.7-3.9-2.9-6.1-3.6zm1 16.8c1.2 4.1-1.1 8.4-5.2 9.6-4.1 1.2-8.4-1.1-9.6-5.2-1.2-4.1 1.1-8.4 5.2-9.6 4.1-1.3 8.4 1.1 9.6 5.2zm11.3-75.6c-3.1.8-6.2-1-7.1-4-.7-2.6.5-5.3 2.8-6.5-1.8-2.6-4-4.9-6.6-6.7-1.6 2.8-5.1 3.7-7.8 2.2-2.3-1.3-3.4-4.1-2.7-6.6-3.1-.6-6.3-.6-9.5-.1.9 3.1-.9 6.2-4 7.1-2.6.7-5.4-.5-6.6-2.9-2.6 1.8-4.9 4-6.8 6.6 2.8 1.4 3.9 4.9 2.5 7.7-1.3 2.5-4.3 3.7-7 2.8-.6 3.1-.6 6.4-.1 9.5 3-1 6.3.6 7.3 3.6.9 2.7-.4 5.7-3 7 1.8 2.6 4.1 4.9 6.7 6.8 1.5-2.8 5-3.9 7.8-2.3 2.4 1.3 3.6 4.2 2.8 6.8 3.1.6 6.4.6 9.5 0-.9-3.1.9-6.2 4-7.1 2.6-.7 5.3.4 6.6 2.8 2.6-1.8 4.9-4.1 6.7-6.6-2.8-1.5-3.8-5-2.2-7.8 1.3-2.4 4.1-3.5 6.7-2.7.5-3.4.5-6.5 0-9.6zm-19.1 11.8c-4 4-10.6 4-14.6 0s-4-10.6 0-14.6 10.6-4 14.6 0 4 10.6 0 14.6z"/><path class="st8" d="M118.7 293.1c2 1.9 2.2 5 .3 7.1-.6.6-1.2 1.1-2 1.3 1.5 2.6 3.9 4.7 6.6 6 .7-2.7 3.5-4.2 6.1-3.5 2 .6 3.5 2.3 3.7 4.4 2.9-.7 5.5-2.3 7.4-4.4l.2-.3c-2.3-1.5-3.1-4.5-1.6-6.9 1.1-1.8 3.2-2.7 5.2-2.3.1-2.7-.5-5.3-1.8-7.7-2.2 1.6-5.3 1.2-7-1-1.2-1.6-1.3-3.8-.3-5.6-2.5-1.1-5.2-1.4-7.8-1.1.8 2.6-.7 5.4-3.3 6.2-2 .6-4.2-.1-5.4-1.8l-.2.3c-2 2.2-3.3 4.9-3.7 7.8 1.3.2 2.6.6 3.6 1.5zm7-2.8c2.1-2.3 5.6-2.4 7.9-.4 2.3 2.1 2.4 5.6.4 7.9-2.1 2.3-5.6 2.4-7.9.4-2.3-2.1-2.5-5.7-.4-7.9z"/><path class="st9" d="M113.3 499v30.6m-7.6-30.6v25.9"/><path class="st6" d="M496 711.2V463.6m38 52.8h-35m35 66.2h-35m35 66.2h-35m35 62.4V463.7M48.3 544.6v41c0 2.6 2.1 4.6 4.6 4.6h109.4c2.6 0 4.6-2.1 4.6-4.6v-81.9c0-2.6-2.1-4.6-4.6-4.6H52.9c-2.6 0-4.6 2.1-4.6 4.6v40.9M492 304.1v-4.3h48.1v4.3m-54.5 4.7v-4.4h60.9v4.4m-6.4 150.4v4.4H492v-4.4m54.5-4.7v4.4h-60.9v-4.4"/><path class="st12" d="M61.3 488.4h47.2v10.5H61.3z"/><path class="st13" d="M456.6 307.3h114.3c4 0 7.2 3.2 7.2 7.2v131.4c0 4-3.2 7.2-7.2 7.2H456.6c-4 0-7.2-3.2-7.2-7.2V314.4c0-3.9 3.2-7.1 7.2-7.1z"/><path class="st14" d="M460.1 407.1h110v35.3h-110z"/><g class="st15"><path class="st16" d="M467.4 414.7h7c.6 0 1 .5 1 1v7c0 .6-.5 1-1 1h-7c-.6 0-1-.5-1-1v-7c0-.5.4-1 1-1z"/><path class="st17" d="M467.4 428.1h7c.6 0 1 .5 1 1v7c0 .6-.5 1-1 1h-7c-.6 0-1-.5-1-1v-7c0-.5.4-1 1-1z"/><path class="st18" d="M482.1 414.7h7c.6 0 1 .5 1 1v7c0 .6-.5 1-1 1h-7c-.6 0-1-.5-1-1v-7c0-.5.5-1 1-1z"/><path class="st16" d="M482.1 428.1h7c.6 0 1 .5 1 1v7c0 .6-.5 1-1 1h-7c-.6 0-1-.5-1-1v-7c0-.5.5-1 1-1z"/><path class="st17" d="M496.9 414.7h7c.6 0 1 .5 1 1v7c0 .6-.5 1-1 1h-7c-.6 0-1-.5-1-1v-7c-.1-.5.4-1 1-1z"/><path class="st16" d="M496.9 428.1h7c.6 0 1 .5 1 1v7c0 .6-.5 1-1 1h-7c-.6 0-1-.5-1-1v-7c-.1-.5.4-1 1-1zm14.7-13.4h7c.6 0 1 .5 1 1v7c0 .6-.5 1-1 1h-7c-.6 0-1-.5-1-1v-7c0-.5.4-1 1-1z"/><path class="st18" d="M511.6 428.1h7c.6 0 1 .5 1 1v7c0 .6-.5 1-1 1h-7c-.6 0-1-.5-1-1v-7c0-.5.4-1 1-1z"/><path class="st16" d="M526.3 414.7h7c.6 0 1 .5 1 1v7c0 .6-.5 1-1 1h-7c-.6 0-1-.5-1-1v-7c0-.5.5-1 1-1zm0 13.4h7c.6 0 1 .5 1 1v7c0 .6-.5 1-1 1h-7c-.6 0-1-.5-1-1v-7c0-.5.5-1 1-1z"/><path class="st18" d="M541 414.7h7c.6 0 1 .5 1 1v7c0 .6-.5 1-1 1h-7c-.6 0-1-.5-1-1v-7c0-.5.5-1 1-1z"/><path class="st16" d="M541 428.1h7c.6 0 1 .5 1 1v7c0 .6-.5 1-1 1h-7c-.6 0-1-.5-1-1v-7c0-.5.5-1 1-1zm14.8-13.4h7c.6 0 1 .5 1 1v7c0 .6-.5 1-1 1h-7c-.6 0-1-.5-1-1v-7c0-.5.4-1 1-1z"/><path class="st17" d="M555.8 428.1h7c.6 0 1 .5 1 1v7c0 .6-.5 1-1 1h-7c-.6 0-1-.5-1-1v-7c0-.5.4-1 1-1z"/></g><path class="st6" d="M89.1 493.7H61.3"/><path class="st5" d="M504 534.9v5M74 608.8v31.4"/><path class="st6" d="M66.1 824.9V600.2m38 29.9h-35m35 58.1h-35m35 136.7V600.3m6.1-4.5v4.4H62.1v-4.4m54.4-4.6v4.3H55.7v-4.3"/><path class="st5" d="M74 648.5v5.1"/><path class="st6" d="M456.9 308.8h114.3c4 0 7.2 3.2 7.2 7.2v131.4c0 4-3.2 7.2-7.2 7.2H456.9c-4 0-7.2-3.2-7.2-7.2V316c0-4 3.2-7.2 7.2-7.2z"/><path class="st19" d="M460 318.9h110v76.3H460z"/><path class="st20" d="M467.4 412.5h7c.6 0 1 .5 1 1v7c0 .6-.5 1-1 1h-7c-.6 0-1-.5-1-1v-7c0-.5.4-1 1-1z"/><path class="st17" d="M467.4 425.9h7c.6 0 1 .5 1 1v7c0 .6-.5 1-1 1h-7c-.6 0-1-.5-1-1v-7c0-.5.4-1 1-1z"/><path class="st18" d="M482.1 412.5h7c.6 0 1 .5 1 1v7c0 .6-.5 1-1 1h-7c-.6 0-1-.5-1-1v-7c0-.5.5-1 1-1z"/><path class="st20" d="M482.1 425.9h7c.6 0 1 .5 1 1v7c0 .6-.5 1-1 1h-7c-.6 0-1-.5-1-1v-7c0-.5.5-1 1-1z"/><path class="st17" d="M496.9 412.5h7c.6 0 1 .5 1 1v7c0 .6-.5 1-1 1h-7c-.6 0-1-.5-1-1v-7c-.1-.5.4-1 1-1z"/><path class="st20" d="M496.9 425.9h7c.6 0 1 .5 1 1v7c0 .6-.5 1-1 1h-7c-.6 0-1-.5-1-1v-7c-.1-.5.4-1 1-1zm14.7-13.4h7c.6 0 1 .5 1 1v7c0 .6-.5 1-1 1h-7c-.6 0-1-.5-1-1v-7c0-.5.4-1 1-1z"/><path class="st18" d="M511.6 425.9h7c.6 0 1 .5 1 1v7c0 .6-.5 1-1 1h-7c-.6 0-1-.5-1-1v-7c0-.5.4-1 1-1z"/><path class="st20" d="M526.3 412.5h7c.6 0 1 .5 1 1v7c0 .6-.5 1-1 1h-7c-.6 0-1-.5-1-1v-7c0-.5.5-1 1-1zm0 13.4h7c.6 0 1 .5 1 1v7c0 .6-.5 1-1 1h-7c-.6 0-1-.5-1-1v-7c0-.5.5-1 1-1z"/><path class="st18" d="M541 412.5h7c.6 0 1 .5 1 1v7c0 .6-.5 1-1 1h-7c-.6 0-1-.5-1-1v-7c0-.5.5-1 1-1z"/><path class="st20" d="M541 425.9h7c.6 0 1 .5 1 1v7c0 .6-.5 1-1 1h-7c-.6 0-1-.5-1-1v-7c0-.5.5-1 1-1zm14.8-13.4h7c.6 0 1 .5 1 1v7c0 .6-.5 1-1 1h-7c-.6 0-1-.5-1-1v-7c0-.5.4-1 1-1z"/><path class="st17" d="M555.8 425.9h7c.6 0 1 .5 1 1v7c0 .6-.5 1-1 1h-7c-.6 0-1-.5-1-1v-7c0-.5.4-1 1-1z"/><path class="st6" d="M460 318.9h110v76.3H460z"/><path class="st21" d="M125.4 493.7V492c0-2.6 2.1-4.7 4.7-4.7s4.7 2.1 4.7 4.7v1.6"/><path class="st6" d="M117.6 493.7h41.7v5.3h-41.7zm26.7 0l17-40.2"/><circle class="st22" cx="164.7" cy="445.6" r="7.9"/><path class="st23" d="M164.7 441.2c2.4 0 4.4 2 4.4 4.4"/><circle class="st24" cx="1466.5" cy="370.5" r="24.9"/><path class="st25" d="M1466.5 357.1c5.3 0 9.6 4.3 9.6 9.6v3.2c0 5.3-4.3 9.6-9.6 9.6s-9.6-4.3-9.6-9.6v-3.2c0-5.3 4.3-9.6 9.6-9.6zm-3.4 20.9h6.1v6h-6.1zm3.1 2.5c-6.4 0-12.2 3.8-14.8 9.6 8.7 6.7 20.8 6.8 29.7.4-2.5-6.1-8.4-10-14.9-10zm36.4-11.9h111.9v7.9h-111.9zm0 21.6h111.9v7.9h-111.9zm-55.8 21.6h167.7v7.9h-167.7zm55.8-64.8h111.9v7.9h-111.9z"/><path class="st26" d="M1573.2 295.1c.8-.1 1.5-.8 1.4-1.7-.1-.8-.7-1.4-1.4-1.4-.8.1-1.5.8-1.4 1.7.1.7.7 1.3 1.4 1.4z"/><path class="st27" d="M1629.3 286.5s0-4.6 4.6-4.6c-4.6 0-4.6-4.6-4.6-4.6s0 4.6-4.6 4.6c4.6 0 4.6 4.6 4.6 4.6z"/><path class="st28" d="M1576.9 253.4l4.1 4m0-4l-4.1 4"/><path class="st29" d="M481.1 393.5v-62.7H552v62.7"/><path class="st30" d="M492.2 360.7h48.5m-48.5 12.4h48.5m-48.5-28.9H516m-23.8 41.3h48.5M516.5 361v24.2m12.1-24.2v24.2"/><text transform="translate(532.45 348.81)" class="st17 st31 st32">$</text><path class="st33" d="M1590.1 310h20.2v-3.2c0-.7-.6-1.4-1.3-1.4h-17.6c-.7 0-1.3.6-1.3 1.4v3.2z"/><path class="st34" d="M1590.1 310h20.2v-3.2c0-.7-.6-1.4-1.3-1.4h-17.6c-.7 0-1.3.6-1.3 1.4v3.2z"/><path class="st35" d="M1599 272l-.3.1c-3.1.7-5.8 2.8-7.3 5.6-1.2 2.3-1.5 4.9-1 7.4l3.7 17.1c.1.4.3.8.6 1.2l.4.5c.5.6 1.3 1 2.2 1h6c.8 0 1.6-.4 2.2-1l.4-.5c.3-.3.5-.7.6-1.2l3.7-17.1c.5-2.5.2-5.1-1-7.4-1.5-2.8-4.2-4.9-7.3-5.6l-.3-.1-1.2-2.4-1.4 2.4z"/><path class="st34" d="M1599 272l-.3.1c-3.1.7-5.8 2.8-7.3 5.6-1.2 2.3-1.5 4.9-1 7.4l3.7 17.1c.1.4.3.8.6 1.2l.4.5c.5.6 1.3 1 2.2 1h6c.8 0 1.6-.4 2.2-1l.4-.5c.3-.3.5-.7.6-1.2l3.7-17.1c.5-2.5.2-5.1-1-7.4-1.5-2.8-4.2-4.9-7.3-5.6l-.3-.1-1.2-2.4-1.4 2.4zm1.2 32.9v-25.1h2.1c.5 0 .8.4.8.9v16.2m-2.9 1.2v-18.3h-2.1c-.5 0-.8.4-.8.9v16"/><path class="st12" d="M1905.4 578.1h47.2v10.5h-47.2z"/><path class="st6" d="M1924.9 583.4h27.7"/></g></svg>