<svg xmlns="http://www.w3.org/2000/svg" xmlns:v="http://vecta.io" xmlns:xlink="http://www.w3.org/1999/xlink"  viewBox="0 0 58 66" stroke="#000" stroke-linecap="round" stroke-linejoin="round" fill="#fff" fill-rule="evenodd" font-family="Roboto" font-size="14px" text-anchor="middle"><g><title>shopify-icon</title><use xlink:href="#s7AOkR1u-m0CwTKrPINmrS.sym" x="0.5" y="0.5"/></g><symbol id="s7AOkR1u-m0CwTKrPINmrS.sym" overflow="visible" v:tags="shopify, logo"><title>shopify-icon</title><g id="juhnp6a95h6" class="Group.cls" transform="translate(0 0)" v:abox="{&quot;x&quot;:0,&quot;y&quot;:0,&quot;width&quot;:56.235015869140675,&quot;height&quot;:64.00000000000006}" v:size="58,66,0.5,0.5"><g class="Prim.cls"><g id="juhnp6a35h0" transform="translate(0 0)" class=""><path d="M 49.2550048828125 12.484001159668 C 49.2080078125 12.2010040283203 48.9770202636719 11.984001159668 48.6910095214844 11.9570007324219 C 48.4660034179688 11.9199981689453 43.5210266113281 11.5810012817383 43.5210266113281 11.5810012817383 L 39.7510070800781 7.8109970092773 C 39.4110107421875 7.4349975585938 38.6590270996094 7.5449981689453 38.375 7.6230010986328 C 38.3380126953125 7.6230010986328 37.6230163574219 7.8479995727539 36.4530029296875 8.2279968261719 C 35.3160095214844 4.9380035400391 33.3030090332031 1.9219970703125 29.7570190429688 1.9219970703125 L 29.4540100097656 1.9219970703125 C 28.4380187988281 0.6050033569336 27.1940002441406 0 26.1440124511719 0 C 17.8880004882813 0.0370025634766 13.9540100097656 10.3330001831055 12.7100219726563 15.5940017700195 L 6.9400024414063 17.3639984130859 C 5.1700134277344 17.9280014038086 5.1050109863281 17.9690017700195 4.8670043945313 19.6569976806641 L 0 57.1750030517578 L 36.468017578125 64 L 56.2310180664063 59.7400054931641 C 56.2310180664063 59.7030029296875 49.291015625 12.8430023193359 49.2550048828125 12.4850006103516 Z M 34.4309997558594 8.8600006103516 C 33.5140075683594 9.1630020141602 32.468017578125 9.4649963378906 31.3410034179688 9.8050003051758 L 31.3410034179688 9.125 C 31.3743896484375 7.4281616210938 31.1201171875 5.737922668457 30.5890197753906 4.1259994506836 C 32.43701171875 4.4100036621094 33.6790161132813 6.4830017089844 34.4320068359375 8.859001159668 Z M 28.3630065917969 4.5619964599609 C 28.9660034179688 6.3399963378906 29.2460021972656 8.2119979858398 29.1889953613281 10.088996887207 L 29.1889953613281 10.4290008544922 L 22.8139953613281 12.3919982910156 C 24.06201171875 7.7320022583008 26.364013671875 5.4300003051758 28.364013671875 4.5619964599609 Z M 25.9130249023438 2.2689971923828 C 26.2901611328125 2.2770233154297 26.6567687988281 2.3948287963867 26.968017578125 2.6080017089844 C 24.3080139160156 3.8460006713867 21.4960021972656 6.9739990234375 20.2900085449219 13.2350006103516 L 15.2450256347656 14.7809982299805 C 16.6679992675781 10.0299987792969 19.9880065917969 2.2600021362305 25.9100036621094 2.2600021362305 Z" stroke="none" fill="#95bf47"/></g><g id="juhnp6a55h1" transform="translate(36.472015380859375 7.58599853515625)" class=""><path d="M 12.218994140625 4.3710021972656 C 11.9939880371094 4.3339996337891 7.0490112304688 3.995002746582 7.0490112304688 3.995002746582 L 3.2789916992188 0.2249984741211 C 3.1390075683594 0.0830001831055 2.9490051269531 0.0019989013672 2.7519836425781 0 L 0 56.4140014648438 L 19.7630004882813 52.1540069580078 L 12.7829895019531 4.9360046386719 C 12.736572265625 4.6459045410156 12.5090942382813 4.4184265136719 12.218994140625 4.3720016479492 Z" stroke="none" fill="#5e8e3e"/></g><g id="juhnp6a65h2" transform="translate(8.58502197265625 21.897003173828125)" class=""><path d="M 21.1730041503906 0.9929962158203 L 18.718994140625 8.2350006103516 C 17.2359924316406 7.5169982910156 15.614990234375 7.1309967041016 13.9669799804688 7.1019973754883 C 10.1189880371094 7.1019973754883 9.9309997558594 9.5139923095703 9.9309997558594 10.1199951171875 C 9.9309997558594 13.4179992675781 18.5669860839844 14.6839981079102 18.5669860839844 22.452995300293 C 18.5669860839844 28.5629959106445 14.6819763183594 32.4830017089844 9.4669799804688 32.4830017089844 C 3.2070007324219 32.4830017089844 0 28.5979919433594 0 28.5979919433594 L 1.6649780273438 23.0479965209961 C 1.6649780273438 23.0479965209961 4.9449768066406 25.8779983520508 7.7379760742188 25.8779983520508 C 8.4126892089844 25.9037170410156 9.0685119628906 25.6521148681641 9.5528869628906 25.1817245483398 C 10.0372619628906 24.7113342285156 10.3079528808594 24.0631637573242 10.302001953125 23.3880004882813 C 10.302001953125 19.0479965209961 3.2119750976563 18.8609924316406 3.2119750976563 11.7699966430664 C 3.2119750976563 5.8079986572266 7.5099792480469 0 16.14599609375 0 C 19.5399780273438 0.0499954223633 21.1640014648438 0.9899978637695 21.1640014648438 0.9899978637695 Z" stroke="none"/></g></g></g></symbol></svg>