<svg xmlns="http://www.w3.org/2000/svg" viewBox="-1307.4 1896.4 428.3 306.8"><circle fill="none" stroke="#F2F2F2" stroke-width="2.75" stroke-linecap="round" stroke-linejoin="round" stroke-miterlimit="10" cx="-1085" cy="2063.9" r="138"/><path fill="#FFF" d="M-951.8 2164.2l-1.2 7.3-2.1 7-4.2 6.1-4.9 5.4-6.5 3.6-6.8 2.8-7.4.5-7.3-.5-6.8-2.8-6.5-3.6-4.9-5.4-4.3-6.1-2-7-1.2-7.3 1.2-7.3 2-7.1 4.3-6 4.9-5.5 6.5-3.6 6.8-2.8 7.3-.4 7.4.4 6.8 2.8 6.5 3.6 4.9 5.5 4.2 6 2.1 7.1z"/><path fill="none" stroke="#E0E0E0" stroke-width="2.5" stroke-linecap="round" stroke-linejoin="round" stroke-miterlimit="10" d="M-951.8 2164.2l-1.2 7.3-2.1 7-4.2 6.1-4.9 5.4-6.5 3.6-6.8 2.8-7.4.5-7.3-.5-6.8-2.8-6.5-3.6-4.9-5.4-4.3-6.1-2-7-1.2-7.3 1.2-7.3 2-7.1 4.3-6 4.9-5.5 6.5-3.6 6.8-2.8 7.3-.4 7.4.4 6.8 2.8 6.5 3.6 4.9 5.5 4.2 6 2.1 7.1z"/><circle fill="#FFF" cx="-985.3" cy="2164.2" r="28"/><path fill="none" stroke="#E0E0E0" stroke-width="2.5" stroke-linecap="round" stroke-linejoin="round" stroke-miterlimit="10" d="M-991.1 2124.3l-1.4-1.9-1.5-1.7-.4-2.3-.7-2.2 1.1-3.7 1.9-3.4 3.4-1.9 3.7-1.1 3.7 1.1 3.4 1.9 1.9 3.4 1.1 3.7-.6 2.1-.4 2.2-1.5 1.7-1.3 1.8m22 40.2l-1.7 8.6-3.7 8-6.4 5.9-7.6 4.3-8.8 1-8.7-1-7.6-4.3-6.5-5.9-3.6-8-1.8-8.6 1.8-8.6 3.6-8 6.5-5.9 7.6-4.3 8.7-1 8.8 1 7.6 4.3 6.4 5.9 3.7 8z"/><path fill="none" stroke="#B9F2FF" stroke-width="2.75" stroke-linecap="round" stroke-linejoin="round" stroke-miterlimit="10" d="M-985 2144.3l.2-1.9-.2-1.9m0 47l.2-1.6-.2-1.6m20.2-20.1l1.8.2 1.9-.2m-47.6 0l1.9.2 1.9-.2m34.1-14.1l1.5-1.2 1.2-1.5m-33.7 33.6l1.5-1.2 1.2-1.4m28.5 0l1.2 1.4 1.4 1.2m-33.6-33.6l1.2 1.5 1.4 1.2"/><path fill="none" stroke="#BEBEBE" stroke-width="2.5" stroke-linecap="round" stroke-linejoin="round" stroke-miterlimit="10" d="M-963.7 2137.3l.8-.5.5-.9.9-.5.6-.9 1.8 2.1 1.9 1.7 1.8 1.9 2 1.8-.9.6-.5.9-.9.5-.5.8"/><path fill="none" stroke="#E0E0E0" stroke-width="2.5" stroke-linecap="round" stroke-linejoin="round" stroke-miterlimit="10" d="M-1013.5 2144.8l-.6-.8-.8-.5-.5-.9-.9-.6 2-1.7 1.7-2 2-1.7 1.7-2.1.7.9.8.5.6.9.8.5m22.9-7.3l.2-1-.2-1 .2-1m-4.2 3l.2-1-.2-1 .2-1m5.6-1.4l-2.5-.2-2.5.2-2.5-.2-1.2-.1-.7-1-.5-1.1.2-.2-.2-.2.2-.2.1-1.2 1-.7 1.1-.5 2.5.2 2.5-.2 2.5.2 1.3.1.7 1 .5 1.1-.2.2.2.2-.2.2-.1 1.2-1 .7z"/><circle fill="#E0E0E0" cx="-985" cy="2164.4" r="3.1"/><path fill="none" stroke="#E0E0E0" stroke-width="2.5" stroke-linecap="round" stroke-linejoin="round" stroke-miterlimit="10" d="M-997.7 2157.9l2.5 1.6 2.7 1.1 2.5 1.6 2.7 1.1m2.4-14.1l-.2 3.3.2 3.3-.2 3.2.2 3.3"/><path fill="#F2F2F2" d="M-914.7 2081.6l9.4.4 9.5-.4 9.5.4 2.9.4 1.8 2.3 1.1 2.7-.4 34.7.4 34.7-.4 34.7-.4 2.9-2.3 1.8-2.7 1.1-25.5-.4-25.5.4-25.5-.4-2.9-.4-1.8-2.3-1.1-2.7.4-34.7-.4-34.7.4-34.7.3-2.9 2.4-1.8 2.7-1.1 9.5.4 9.5-.4 9.4.4"/><path fill="none" stroke="#909090" stroke-width="2.75" stroke-linecap="round" stroke-linejoin="round" stroke-miterlimit="10" d="M-914.7 2081.6l9.4.4 9.5-.4 9.5.4 2.9.4 1.8 2.3 1.1 2.7-.4 34.7.4 34.7-.4 34.7-.4 2.9-2.3 1.8-2.7 1.1-25.5-.4-25.5.4-25.5-.4-2.9-.4-1.8-2.3-1.1-2.7.4-34.7-.4-34.7.4-34.7.3-2.9 2.4-1.8 2.7-1.1 9.5.4 9.5-.4 9.4.4"/><path fill="#FFF" d="M-894.7 2091.5l1.6.4 1.6-.4 1.5.2.4 32.2-.4 32.1.3 32.3-23.3-.3-23.1.4-23-.3-.4-32.1.4-32.1-.4-32.2 1.9.2 1.6-.4 1.6.4"/><path fill="none" stroke="#BEBEBE" stroke-width="2.75" stroke-linecap="round" stroke-linejoin="round" stroke-miterlimit="10" d="M-894.7 2091.5l1.6.4 1.6-.4 1.5.2.4 32.2-.4 32.1.3 32.3-23.3-.3-23.1.4-23-.3-.4-32.1.4-32.1-.4-32.2 1.9.2 1.6-.4 1.6.4"/><path fill="#FFF" d="M-1194.5 2143.7l7.1-2 6.8-2.7 7.1-1.9 6.9-2.7 7.1-1.9 1-.6 1.1.6 1.2.2.5 1.1.9.9 2 8 2.8 7.7 2 8 2.8 7.7 2.1 8 .5 1.1-.6 1-.1 1.2-1.1.6-.9.8-10 2.8-9.7 3.6-9.9 2.8-9.8 3.6-9.9 2.8"/><path fill="none" stroke="#E0E0E0" stroke-width="2.5" stroke-linecap="round" stroke-linejoin="round" stroke-miterlimit="10" d="M-1194.5 2143.7l7.1-2 6.8-2.7 7.1-1.9 6.9-2.7 7.1-1.9 1-.6 1.1.6 1.2.2.5 1.1.9.9 2 8 2.8 7.7 2 8 2.8 7.7 2.1 8 .5 1.1-.6 1-.1 1.2-1.1.6-.9.8-10 2.8-9.7 3.6-9.9 2.8-9.8 3.6-9.9 2.8"/><path fill="#E0E0E0" stroke="#E0E0E0" stroke-width="2.5" stroke-linecap="round" stroke-linejoin="round" stroke-miterlimit="10" d="M-1150.7 2148.7l-43.1 14.2v-10.1l40.4-12.8z"/><path fill="none" stroke="#E0E0E0" stroke-width="2.5" stroke-linecap="round" stroke-linejoin="round" stroke-miterlimit="10" d="M-1174.1 2166.8l2.9-.5 2.7-1.3 3-.4"/><path fill="none" stroke="#B9F2FF" stroke-width="2.5" stroke-linecap="round" stroke-linejoin="round" stroke-miterlimit="10" d="M-1265.7 2197.1l-3.3-.4-3.2.4-3.3-.4-3.2.4-3.2-.4-.5.3-.3-.5h-.6l.2-.6-.5-.4.4-.8-.4-.8.4-.8-.4-.8.4-.8-.3-.5.6-.2v-.6l.6.2.4-.5 3.1.4 3.1-.4 3.1.4 3.2-.4 3.1.4m0 0l-4.1-.4-4.1.4-4.1-.4-4.1.4-4.1-.4-.5.3-.2-.5-.6-.1.2-.6-.5-.3.4-.8-.4-.8.4-.8-.4-.8.4-.8-.3-.5.5-.2.1-.6.5.1.4-.4 4.1.4 4.1-.4 4.1.4 4.1-.4 4.1.4m0 0l-3.5-.4-3.4.4-3.5-.4-3.4.4-3.5-.4-.5.3-.2-.6h-.6l.1-.6-.4-.4.4-.7-.4-.8.4-.8-.4-.8.4-.8-.4-.5.6-.2v-.6l.6.1.4-.5 3.4.4 3.5-.4 3.5.4 3.4-.4 3.5.4m0 0l-3.5-.4-3.4.4-3.5-.4-3.4.4-3.5-.4-.5.4-.2-.6h-.6l.1-.6-.4-.4.4-.8-.4-.8.4-.8-.4-.8.4-.8-.4-.5.6-.2v-.6l.6.2.4-.5 3.5.4 3.6-.4 3.5.4 3.6-.4 3.6.4"/><path fill="none" stroke="#B9F2FF" stroke-width="2.5" stroke-linecap="round" stroke-linejoin="round" stroke-miterlimit="10" d="M-1267.2 2169.8l-4.1-.4-4.1.4-4.2-.4-4.1.4-4.1-.4-.5.4-.2-.6h-.6l.2-.6-.5-.3.4-.8-.4-.9.4-.8-.4-.8.4-.8-.3-.5.6-.2v-.6l.5.2.4-.5 4.1.4 4.1-.4 4.2.4 4.1-.4 4.1.4.5-.3.2.5h.6l-.2.6.5.4-.4.8.4.8-.4.8.4.8-.4.9.3.5-.6.2v.5l-.5-.1zm-20 12.8l-3.2 2.6-2.6 3.1-3.2 2.6-2.6 3.1-3.2 2.6-.1.5-.4-.3-.4.4-.1-.5-.5.2-.2-.8-.7-.2-.2-.7-.7-.2-.2-.7-.5-.1.3-.4-.4-.3.4-.2-.1-.5 3.2-2.6 2.6-3.1 3.2-2.6 2.6-3.1 3.2-2.6.1-.5.4.2.4-.3.1.4.5-.1.2.8.7.1.2.8.7.1.2.8h.5l-.3.5.4.3-.4.2zm21.4-19.6l-3.6-.4-3.5.4-3.6-.4-3.6.4-3.5-.4-.5.3-.2-.5-.6-.1.1-.5-.4-.4.4-.8-.4-.8.4-.8-.4-.8.4-.8-.4-.5.6-.2v-.6l.6.1.4-.4 3.5.4 3.6-.4 3.5.4 3.6-.4 3.6.4"/><path fill="#E0E0E0" d="M-1258.9 2132.2l.2-2.7-.2-2.6.2-2.6-.2-2.7.2-2.6-.2-2.6.2-2.7.5-6.5 2.3-6.1 3.4-5.7 4.7-4.4 5.5-3.7 6.2-2 6.5-.9v.2-.2.2-.2.2-.2.2l6.5.5 6.1 2.4 5.7 3.3 4.4 4.8 3.7 5.4 2 6.2.9 6.5-.2 2.6.2 2.7-.2 2.6.2 2.6-.2 2.7.2 2.6-.2 2.6-1.1.2-1.2-.2-1.2.2-1.3-.2-1.2.2-1.2-.2-1.3.2.2-2.7-.2-2.7.2-2.6-.2-2.7.2-2.6-.2-2.7.2-2.6-.7-4.6-1.4-4.5-2.6-3.8-3.1-3.4-4.1-2.3-4.3-1.7-4.6-.3v-.2.2-.2.2-.2.2-.2l-4.6.7-4.4 1.3-3.9 2.7-3.4 3.1-2.3 4-1.7 4.3-.3 4.7-.2 2.6.2 2.7-.2 2.6.2 2.7-.2 2.6.2 2.7-.2 2.6-1.1.1-1.2-.2-1.3.2-1.2-.2-1.2.2-1.2-.2z"/><path fill="none" stroke="#909090" stroke-width="2.75" stroke-linecap="round" stroke-linejoin="round" stroke-miterlimit="10" d="M-1258.9 2132.2l.2-2.7-.2-2.6.2-2.6-.2-2.7.2-2.6-.2-2.6.2-2.7.5-6.5 2.3-6.1 3.4-5.7 4.7-4.4 5.5-3.7 6.2-2 6.5-.9v.2-.2.2-.2.2-.2.2l6.5.5 6.1 2.4 5.7 3.3 4.4 4.8 3.7 5.4 2 6.2.9 6.5-.2 2.6.2 2.7-.2 2.6.2 2.6-.2 2.7.2 2.6-.2 2.6-1.1.2-1.2-.2-1.2.2-1.3-.2-1.2.2-1.2-.2-1.3.2.2-2.7-.2-2.7.2-2.6-.2-2.7.2-2.6-.2-2.7.2-2.6-.7-4.6-1.4-4.5-2.6-3.8-3.1-3.4-4.1-2.3-4.3-1.7-4.6-.3v-.2.2-.2.2-.2.2-.2l-4.6.7-4.4 1.3-3.9 2.7-3.4 3.1-2.3 4-1.7 4.3-.3 4.7-.2 2.6.2 2.7-.2 2.6.2 2.7-.2 2.6.2 2.7-.2 2.6-1.1.1-1.2-.2-1.3.2-1.2-.2-1.2.2-1.2-.2z"/><path fill="#E0E0E0" d="M-1196.8 2197.1l-13.1-.4-13.2.4-13.1-.4-13.1.4-13.1-.4-.8.3-.4-.7-.8-.2v-.8l-.5-.6.4-12.1-.4-12 .4-12.1-.4-12 .4-12.1-.3-.8.7-.4.2-.8h.8l.7-.5 13.1.4 13.1-.4 13.1.4 13.2-.4 13.1.4.7-.2.5.6.8.3-.1.8.5.6-.4 12 .4 12.1-.4 12.1.4 12-.4 12.1.3.7-.7.5-.2.8-.8-.1z"/><path fill="none" stroke="#909090" stroke-width="2.75" stroke-linecap="round" stroke-linejoin="round" stroke-miterlimit="10" d="M-1196.8 2197.1l-13.1-.4-13.2.4-13.1-.4-13.1.4-13.1-.4-.8.3-.4-.7-.8-.2v-.8l-.5-.6.4-12.1-.4-12 .4-12.1-.4-12 .4-12.1-.3-.8.7-.4.2-.8h.8l.7-.5 13.1.4 13.1-.4 13.1.4 13.2-.4 13.1.4.7-.2.5.6.8.3-.1.8.5.6-.4 12 .4 12.1-.4 12.1.4 12-.4 12.1.3.7-.7.5-.2.8-.8-.1z"/><path fill="#909090" d="M-1224.1 2159.4l-.6-2.9-2.2-1.9-2.9-.9-2.6 1-2.1 1.8-.6 2.7v2l1.1 1.6 1.3 1.4.7.5v.8l.1.7-1.3 3.1-.9 3.1-1.2 3.2 3.8-.2 3.8.2 3.6-.2-.9-3-1.3-3.1-.9-3.2-.2-.7.4-.6.4-.7 1.5-1.1.7-1.8z"/><path fill="none" stroke="#909090" stroke-width="1.5" stroke-linecap="round" stroke-linejoin="round" stroke-miterlimit="10" d="M-1224.1 2159.4l-.6-2.9-2.2-1.9-2.9-.9-2.6 1-2.1 1.8-.6 2.7v2l1.1 1.6 1.3 1.4.7.5v.8l.1.7-1.3 3.1-.9 3.1-1.2 3.2 3.8-.2 3.8.2 3.6-.2-.9-3-1.3-3.1-.9-3.2-.2-.7.4-.6.4-.7 1.5-1.1.7-1.8z"/><path fill="none" stroke="#EFEFEF" stroke-width="2" stroke-linecap="round" stroke-linejoin="round" stroke-miterlimit="10" d="M-1219.6 2138.7l5.2.4 5.2-.4 5.3.4h1.3l.7 1.2.7 1.2-.4 7.6.4 7.6-.4 7.6"/><path fill="#6FDA44" d="M-1166.3 2170l-4.6.3-4 2.3-3.7 2.7-2.1 4.1-1.4 4.1-8.4.4-8.4-.4-8.4.4-8.4-.4-8.4.4-.2.8.4 1-.4 1 .4 1-.2 1.2 8.5-.4 8.5.4 8.5-.4 8.5.4 8.5-.4.2.2h-.4.4-.4l1.8 3.9 2.1 3.8 3.6 2.4 3.8 2.1 4.3.2 4.9-.4 4.2-2.6 3.8-3.2 1.9-4.6 1.2-4.8-1.2-4.8-1.9-4.6-3.8-3.2-4.2-2.6-5-.3zm0 25.5l-3-.9-2.9-1-1.9-2.4-1.7-2.5-.1-3.1.1-3.1 1.7-2.5 1.9-2.4 2.9-1 3-.9 3 .9 2.9 1 1.9 2.4 1.7 2.5.1 3.1-.1 3.1-1.7 2.5-1.9 2.4-2.9 1-3 .9z"/><path fill="none" stroke="#6FDA44" stroke-linecap="round" stroke-linejoin="round" stroke-miterlimit="10" d="M-1166.3 2170l-4.6.3-4 2.3-3.7 2.7-2.1 4.1-1.4 4.1-8.4.4-8.4-.4-8.4.4-8.4-.4-8.4.4-.2.8.4 1-.4 1 .4 1-.2 1.2 8.5-.4 8.5.4 8.5-.4 8.5.4 8.5-.4.2.2h-.4.4-.4l1.8 3.9 2.1 3.8 3.6 2.4 3.8 2.1 4.3.2 4.9-.4 4.2-2.6 3.8-3.2 1.9-4.6 1.2-4.8-1.2-4.8-1.9-4.6-3.8-3.2-4.2-2.6-5-.3zm0 25.5l-3-.9-2.9-1-1.9-2.4-1.7-2.5-.1-3.1.1-3.1 1.7-2.5 1.9-2.4 2.9-1 3-.9 3 .9 2.9 1 1.9 2.4 1.7 2.5.1 3.1-.1 3.1-1.7 2.5-1.9 2.4-2.9 1-3 .9z"/><path fill="#6FDA44" d="M-1209.7 2188.7l-.4 2.2.4 2.2-.4 2.3 1.4-.3 1.3.4 1.4-.3-.4 1.7.4 1.7-.2 1.4-5.9.4-5.9-.4-6 .4.2-1.8-.4-1.7.4-1.5 1.1-.3 1.3.4 1.1-.3.4-2.1-.4-2.2.4-2.1.6-.3.8.4 1-.2-.4 2.2.4 2.2-.3 2.3 1.9-.3 1.7.4 1.7-.3.3-2.1-.4-2.2.4-2.1.6-.3.9.4z"/><path fill="none" stroke="#6FDA44" stroke-linecap="round" stroke-linejoin="round" stroke-miterlimit="10" d="M-1209.7 2188.7l-.4 2.2.4 2.2-.4 2.3 1.4-.3 1.3.4 1.4-.3-.4 1.7.4 1.7-.2 1.4-5.9.4-5.9-.4-6 .4.2-1.8-.4-1.7.4-1.5 1.1-.3 1.3.4 1.1-.3.4-2.1-.4-2.2.4-2.1.6-.3.8.4 1-.2-.4 2.2.4 2.2-.3 2.3 1.9-.3 1.7.4 1.7-.3.3-2.1-.4-2.2.4-2.1.6-.3.9.4z"/><path fill="#FFF" d="M-1061.4 1919.4l-.3 11.2.4 11.1-.4 11 .4 11.1-.4 10.9-9.2.3-9.3-.4-9.3.4-9.3-.4-9.3.4-.3 2.8.4 3-.4 3 .4 3.1-.2 2.8-3.9-2.7-3.6-3.3-4.1-2.7-3.5-3.3-4.1-2.7-1.9-.4-2.1.4-2-.4-2 .4-1.9-.2-.4-11 .4-11.1-.4-11 .4-11.1-.3-11.2 15.3.3 15.2-.4 15.2.4 15.2-.4z"/><path fill="none" stroke="#E0E0E0" stroke-width="2.5" stroke-linecap="round" stroke-linejoin="round" stroke-miterlimit="10" d="M-1061.4 1919.4l-.3 11.2.4 11.1-.4 11 .4 11.1-.4 10.9-9.2.3-9.3-.4-9.3.4-9.3-.4-9.3.4-.3 2.8.4 3-.4 3 .4 3.1-.2 2.8-3.9-2.7-3.6-3.3-4.1-2.7-3.5-3.3-4.1-2.7-1.9-.4-2.1.4-2-.4-2 .4-1.9-.2-.4-11 .4-11.1-.4-11 .4-11.1-.3-11.2 15.3.3 15.2-.4 15.2.4 15.2-.4z"/><path fill="none" stroke="#E0E0E0" stroke-width="2.5" stroke-linecap="round" stroke-linejoin="round" stroke-miterlimit="10" d="M-1127.6 1952.6l11 .4 11.1-.4 11 .4 11-.4 11.1.4M-1127.6 1942.3l10.1.4 10.1-.4 10.1.4 10-.4 10.1.4M-1127.6 1963l7.2.4 7.3-.4 7.2.4 7.2-.4 7.3.4M-1127.6 1932l11 .4 11.1-.4 11 .4 11-.4 11.1.4"/><path fill="#F2F2F2" d="M-1094.9 1898.2l-.3 18.2.4 18.5-.4 18.6 16-.4 15.9.4 15.9-.4-.3 5.2.4 5-.2 5.2 6.3-5.3 6.6-4.7 6.2-5.4 3.4.4 3.4-.4 3.6.3-.4-18.5.4-18.5-.3-18.2-25.5-.4-25.6.4z"/><path fill="none" stroke="#909090" stroke-width="2.75" stroke-linecap="round" stroke-linejoin="round" stroke-miterlimit="10" d="M-1094.9 1898.2l-.3 18.2.4 18.5-.4 18.6 16-.4 15.9.4 15.9-.4-.3 5.2.4 5-.2 5.2 6.3-5.3 6.6-4.7 6.2-5.4 3.4.4 3.4-.4 3.6.3-.4-18.5.4-18.5-.3-18.2-25.5-.4-25.6.4z"/><circle fill="#6FDA44" cx="-1071.6" cy="1925.9" r="4.3"/><circle fill="#6FDA44" cx="-1056.6" cy="1925.9" r="4.3"/><circle fill="#6FDA44" cx="-1041.4" cy="1925.9" r="4.3"/><path fill="#FFF" d="M-1123.6 1936.6l8 5.9-1.8-18.5-37.5 5.3 4.1 35.8 13.4-18.3 4.9 3.4 8.9-13.6"/><path fill="#E7E7E7" d="M-1137.4 1946.8l-12.5 18 .3 2.4 37.7-4.8-2.7-18.8-9-7-8.7 13z"/><path fill="none" stroke="#B2B2B2" stroke-width="2.5" stroke-linecap="round" stroke-linejoin="round" stroke-miterlimit="10" d="M-1150.5 1966.6l13.1-19.8 10.7 8.2m-5.8-4.4l8.9-14 9 7"/><circle fill="#B9F2FF" cx="-1144.3" cy="1937.5" r="5.2"/><path fill="none" stroke="#B2B2B2" stroke-width="2.5" stroke-linecap="round" stroke-linejoin="round" stroke-miterlimit="10" d="M-1111.905 1962.39l-38.416 5.455-5.456-38.416 38.416-5.456zM-1127 1916l-3.4 12.5c-.5 1.7.5 3.4 2.2 3.9 1.7.5 3.4-.5 3.9-2.2l3.7-13.4c.9-3.1-1-6.3-4.1-7.2-3.1-.9-6.3 1-7.2 4.1l-1 3.5"/><path fill="#FFF" d="M-1137.5 1919.3l1 .4 1-.4 1 .4 1-.4.9.4"/><path fill="none" stroke="#E0E0E0" stroke-width="2.75" stroke-linecap="round" stroke-linejoin="round" stroke-miterlimit="10" d="M-1137.5 1919.3l1 .4 1-.4 1 .4 1-.4.9.4"/><path fill="none" stroke="#BEBEBE" stroke-width="2.75" stroke-linecap="round" stroke-linejoin="round" stroke-miterlimit="10" d="M-924.3 2122l4.8.4 4.8-.4 4.8.4 4.8-.4 4.8.4m-46-15.7l8.3.4 8.4-.4 8.3.4 8.3-.4 8.3.4m-19.6 22.9l4.8.4 4.8-.4 4.8.4 4.8-.4 4.8.4m-24 7.6l3.4.4 3.3-.4 3.4.4 3.4-.4 3.3.4m-16.8 19l4.8.4 4.8-.4 4.8.4 4.8-.4 4.8.4m-24 7.7l3.9.4 4-.4 3.9.4 3.9-.4 3.9.4m-19.6 7.6l4.8.4 4.8-.4 4.8.4 4.8-.4 4.8.4m-34.7-36.7l-2.9-.3-2.7.4-2.8-.4-2.8.4-2.6-.4-.3-2.6.4-2.8-.4-2.8.4-2.7-.4-2.9 2.9.3 2.8-.4 2.8.4 2.7-.4 2.7.3.3 2.7-.4 2.7.4 2.8-.4 2.8z"/><path fill="none" stroke="#85E060" stroke-width="2.75" stroke-linecap="round" stroke-linejoin="round" stroke-miterlimit="10" d="M-945.2 2127.5l.8 1.6 1.4 1.1 1.1 1.6 3.3-4.7 3.9-4.1 3.3-4.7"/><path fill="none" stroke="#BEBEBE" stroke-width="2.75" stroke-linecap="round" stroke-linejoin="round" stroke-miterlimit="10" d="M-935 2172.5l-2.9-.3-2.7.4-2.8-.4-2.8.4-2.6-.4-.3-2.6.4-2.7-.4-2.8.4-2.8-.4-2.9 2.9.3 2.8-.4 2.8.4 2.7-.4 2.7.4.3 2.6-.4 2.8.4 2.7-.4 2.8z"/><path fill="none" stroke="#85E060" stroke-width="2.75" stroke-linecap="round" stroke-linejoin="round" stroke-miterlimit="10" d="M-945.2 2162.8l.8 1.6 1.4 1.1 1.1 1.7 3.3-4.7 3.9-4.2 3.3-4.6"/><path fill="#C1C1C1" d="M-916.5 2082.2l.4-.9-.3-.8.4-.7-1.5-4.1-2.8-3.4-4.3-.7-4.2.7-2.8 3.4-1.5 4.1.4.7-.3.8.4.9-6.6-.4-6.6.4-6.7-.4.3 4.3-.4 4.2.3 4 18.5.4 18.5-.4 18.6.4-.2-4.4.4-4.2-.4-4-6.4-.3-6.6.4z"/><path fill="#909090" d="M-924.6 2083c4.8 0 4.8-7.5 0-7.5s-4.8 7.5 0 7.5z"/><path fill="none" stroke="#E5E5E5" stroke-width="2" stroke-linecap="round" stroke-linejoin="round" stroke-miterlimit="10" d="M-937 2090h38m-42 0h-5m4 0h-4"/><path fill="none" stroke="#909090" stroke-width="2.75" stroke-linecap="round" stroke-linejoin="round" stroke-miterlimit="10" d="M-916.5 2082.2l.4-.9-.3-.8.4-.7-1.5-4.1-2.8-3.4-4.3-.7-4.2.7-2.8 3.4-1.5 4.1.4.7-.3.8.4.9-6.6-.4-6.6.4-6.7-.4.3 4.3-.4 4.2.3 4 18.5.4 18.5-.4 18.6.4-.2-4.4.4-4.2-.4-4-6.4-.3-6.6.4z"/></svg>