<svg xmlns="http://www.w3.org/2000/svg" viewBox="-1258.9 1925.6 326 250.6"><circle fill="#F2F2F2" cx="-1083" cy="2051.7" r="70.9"/><path fill="#F4F4F4" d="M-1083 2124.1c-39.9 0-72.4-32.5-72.4-72.4 0-39.9 32.5-72.4 72.4-72.4s72.4 32.5 72.4 72.4c0 39.9-32.5 72.4-72.4 72.4zm0-141.7c-38.2 0-69.4 31.1-69.4 69.4 0 38.2 31.1 69.4 69.4 69.4s69.4-31.1 69.4-69.4c0-38.3-31.2-69.4-69.4-69.4z"/><path fill="#F2F2F2" d="M-1083 2124.1c-39.9 0-72.4-32.5-72.4-72.4 0-39.9 32.5-72.4 72.4-72.4s72.4 32.5 72.4 72.4c0 39.9-32.5 72.4-72.4 72.4zm0-141.7c-38.2 0-69.4 31.1-69.4 69.4 0 38.2 31.1 69.4 69.4 69.4s69.4-31.1 69.4-69.4c0-38.3-31.2-69.4-69.4-69.4zm34 50.3c0-18.6-15.1-33.7-33.7-33.7s-33.7 15.1-33.7 33.7l6.4 1c-.1-15.2 12.2-27.5 27.4-27.5h.1c15.1 0 27.5 12 27.5 27.1l6-.6z"/><path fill="#909090" d="M-1110 2035.3h-.2l-6.4-1c-.7-.1-1.3-.7-1.3-1.5 0-19.4 15.8-35.2 35.2-35.2s35.2 15.8 35.2 35.2c0 .8-.6 1.4-1.4 1.5l-6.1.6c-.4 0-.8-.1-1.2-.4-.3-.3-.5-.7-.5-1.1 0-14.1-11.7-25.6-26-25.6-7.1 0-13.6 2.7-18.5 7.7-4.8 4.9-7.5 11.4-7.4 18.3 0 .4-.2.9-.5 1.2-.2.1-.6.3-.9.3zm-4.9-3.8l3.4.5c.4-7 3.2-13.6 8.2-18.7 5.5-5.5 12.8-8.6 20.6-8.6 15.5 0 28.1 11.9 29 26.9l3.1-.3c-.7-17.1-14.9-30.9-32.2-30.9-17.2.1-31.4 13.9-32.1 31.1z"/><path fill="#D8D8D8" d="M-1030.2 2101.3l-.1-.5c-.1-.4-.8-.7-1-.9-.7-.6-19.7-11.6-37.7-12.3V2075c9-5.4 13-14.6 13-24.6v-16.5c0-16.1-10-26.7-26.1-26.7-7.8 0-14.9 1-20.3 6.6-5.4 5.5-8.3 12.8-8.2 20.5v16.9c0 10.6 4.6 19.1 12.6 23.9v11.1c-15 .1-26.8 4.6-35.5 13.4-.4.4-.8.9-.6 1.4.1.3.2.5.2.7v.4c0 .4.7.8.9 1.1 13.8 13.4 32.1 20.8 50.9 20.8 19.4 0 37.8-7.6 51.5-21.5.3-.2.5-.7.4-1.2z"/><path fill="#909090" d="M-1132.7 2103.4c-.8 0-1.5-.7-1.5-1.5v-.3c-.2-.2-.3-.5-.4-.8-.1-.5.1-.9.4-1.2 8.8-8.8 20.8-13.3 35.7-13.5v-11c-8.2-5.2-12.8-13.8-12.8-23.9l-.2-16.9c-.1-7.7 2.9-15 8.3-20.4 5.5-5.5 12.8-8.6 20.6-8.6 16 0 29 12.8 29 28.6v16.5c0 10.1-4.9 19.2-13.3 24.6v10.6c18.5.4 29.6 8 35.7 14.5.4.4.5 1.1.3 1.6s-.8.9-1.4.9h-.4c-.8 0-1.4-.6-1.5-1.3-6-6-16.7-12.7-34.2-12.7-.8 0-1.5-.7-1.5-1.5v-12.9c0-.5.3-1 .7-1.3 7.9-4.8 12.6-13.3 12.6-22.5v-16.5c0-14.1-11.7-25.6-26-25.6-7.1 0-13.6 2.7-18.5 7.7-4.8 4.9-7.5 11.4-7.4 18.3l.2 16.9c0 9.3 4.4 17.2 12.1 21.8.5.3.7.8.7 1.3v13.3c0 .8-.7 1.5-1.5 1.5h-.8c-14 0-25.2 4-33.5 11.8v1c.1.8-.6 1.5-1.4 1.5z"/><path fill="#F2F2F2" d="M-1115.2 2057.2l-.9-.2-.9.2-.9-.2-4.2-2.5-1.5-5-.6-5.1.6-5.2 1.6-4.9 4.1-2.6.9-.2.9.2.9-.2"/><path fill="#909090" d="M-1115.2 2058.7h-.3l-.6-.1-.6.1h-.6l-.9-.2c-.2 0-.3-.1-.5-.2l-4.2-2.6c-.3-.2-.5-.5-.7-.8l-1.5-5c0-.1 0-.2-.1-.3l-.6-5.2v-.4l.7-5.1c0-.1 0-.2.1-.3l1.5-4.9c.1-.3.3-.6.6-.8l4.2-2.6c.1-.1.3-.2.5-.2l.9-.2h.6l.6.1.6-.1c.8-.2 1.6.3 1.8 1.1.2.8-.3 1.6-1.1 1.8l-.9.2h-.6l-.6-.1-.3.1-3.5 2.2-1.3 4.3-.6 4.8.6 4.8 1.3 4.3 3.5 2.1.3.1.6-.1h.6l.9.2c.8.2 1.3 1 1.1 1.8-.2.8-.8 1.2-1.5 1.2z"/><path fill="#73E6FF" d="M-1116.3 2031.4l.7.4.6-.4.6.4 1.9.1 1.1 1.6.8 1.7-.4 6.1.4 6.1-.4 6.1-.1 1.9-1.6 1.1-1.7.8-.6-.4-.6.4-.7-.4"/><path fill="#909090" d="M-1114.4 2058.8c-.2 0-.4 0-.6-.1-.5.2-1 .2-1.4-.1l-.6-.4c-.7-.5-.9-1.4-.4-2.1.4-.6 1.2-.8 1.9-.5.4-.2.9-.2 1.3 0l.9-.4.9-.6.5-7.2-.4-6v-.2l.4-5.7-.6-1.3-.6-.9-1.2-.1c-.2 0-.4-.1-.5-.1-.5.2-1 .2-1.4-.1l-.6-.4c-.7-.5-.9-1.4-.4-2.1.4-.6 1.2-.8 1.9-.5.5-.2 1-.2 1.4.1l.3.2 1.5.1c.5 0 .9.3 1.2.7l1.1 1.6c0 .1.1.1.1.2l.9 1.7c.1.2.2.5.2.8l-.4 6 .4 6v.2l-.5 8c0 .5-.3.9-.7 1.2l-1.6 1.1c-.1 0-.1.1-.2.1l-1.7.9c-.7-.1-.9-.1-1.1-.1z"/><path fill="#B2B2B2" d="M-1080.1 2066.3c-.8 0-1.5-.7-1.5-1.5s.7-1.5 1.5-1.5h22.4c2.2 0 4.2-1.1 5.1-2.9.4-.8.7-1.7.7-2.7 0-.8.7-1.5 1.5-1.5s1.5.7 1.5 1.5c0 1.4-.3 2.8-1 4.1-1.5 2.8-4.4 4.5-7.8 4.5h-22.4zm12 .5v-3.8h-2.6c-.7-1.9-2.5-3.2-4.6-3.3h-2.7c-2.8-.1-5.1 2.2-5.2 5-.1 2.8 2.2 5.1 5 5.2h2.7c2.1 0 3.9-1.2 4.7-3l2.7-.1z"/><path fill="#F2F2F2" d="M-1050.1 2031.5l.9.2.9-.2.9.2 4.3 2.5 1.5 5 .6 5.2-.7 5.1-1.5 4.9-4.2 2.6-.9.2-.9-.2-.9.2"/><path fill="#909090" d="M-1050.1 2058.7c-.7 0-1.3-.5-1.5-1.2-.2-.8.3-1.6 1.1-1.8l.9-.2h.6l.6.1.3-.1 3.5-2.2 1.3-4.3.6-4.8-.6-4.8-1.3-4.3-3.5-2.1-.3-.1-.6.1h-.6l-.9-.2c-.8-.2-1.3-1-1.1-1.8.2-.8 1-1.3 1.8-1.1l.6.1.6-.1h.6l.9.2c.2 0 .3.1.5.2l4.2 2.6c.3.2.5.5.7.8l1.5 5c0 .1 0 .2.1.3l.6 5.2v.4l-.7 5.1c0 .1 0 .2-.1.3l-1.5 4.9c-.1.3-.3.6-.6.8l-4.2 2.6c-.1.1-.3.2-.5.2l-.9.2h-.6l-.6-.1-.6.1h-.3z"/><path fill="#73E6FF" d="M-1049 2057.3l-.6-.4-.6.4-.6-.4-2-.1-1-1.6-.9-1.7.4-6.1-.4-6.1.4-6.1.1-1.9 1.6-1.1 1.8-.8.6.4.6-.4.6.4"/><path fill="#909090" d="M-1049 2058.8c-.2 0-.4 0-.6-.1-.5.2-1 .2-1.4-.1l-.3-.2-1.5-.1c-.5 0-.9-.3-1.2-.7l-1.1-1.6c0-.1-.1-.1-.1-.2l-.9-1.7c-.1-.2-.2-.5-.2-.8l.4-6-.4-6v-.2l.5-8c0-.5.3-.9.7-1.2l1.6-1.1c.1 0 .1-.1.2-.1l1.7-.9c.4-.2.9-.2 1.3 0 .5-.2 1-.2 1.4.1l.6.4c.7.5.9 1.4.4 2.1-.4.6-1.2.8-1.9.5-.4.2-.9.2-1.3 0l-.9.4-.9.6-.5 7.2.4 6v.2l-.4 5.7.6 1.3.6.9 1.2.1c.2 0 .4.1.5.1.5-.2 1-.2 1.4.1l.6.4c.7.5.9 1.4.4 2.1.1.6-.4.8-.9.8z"/><path fill="#FFF" d="M-939.6 1950l-38.4-.4-38.6.4-38.6-.3.3 17.7-.4 17.5.4 17.5 7 .2 7.2-.4 7.2.4.3 4.1-.4 4.3.2 4 5.4-3.9 5.2-4.5 5.5-4 25.9-.4 25.9.4 25.8-.3.4-17.4-.4-17.5z"/><path fill="#909090" d="M-1033.4 2016.5c-.2 0-.4 0-.7-.2-.5-.2-.8-.7-.8-1.3l-.2-4.1v-.2l.4-4.1-.2-2.7-5.7-.3-7.1.4h-.1l-7-.3c-.8 0-1.4-.7-1.4-1.5l-.4-17.5.4-17.6-.3-17.7c0-.4.2-.8.4-1.1.3-.3.7-.4 1.1-.4l38.6.4 38.5-.4 38.5.4c.8 0 1.5.7 1.5 1.5l-.1 17.4.4 17.5-.3 17.4c0 .8-.7 1.5-1.5 1.5l-25.8.4-26-.4-25.4.4-5.1 3.6-5.1 4.5-.1.1-5.5 3.9c-.4.4-.7.4-1 .4zm1.3-5.5l.1 1.2 3.2-2.3 5.1-4.5.1-.1 5.5-3.9c.2-.2.5-.3.8-.3l25.9-.4 26 .4 24.3-.3.3-15.9-.4-17.5.1-15.9-36.9-.4-38.5.4-37.1-.4.3 16.2-.4 17.6.4 16 5.5.2 7.1-.4h.2l7.1.4c.8 0 1.4.6 1.4 1.4l.3 4.1v.3l-.4 4.1z"/><path fill="#E0E0E0" d="M-949.1 1979.5c-.1 0-.1 0 0 0l-19.6-.8-19.4.8-19.6-.8-19.4.8-19.6-.8c-.6 0-1-.5-1-1 0-.6.5-1 1-1l19.5.8 19.4-.8 19.6.8 19.4-.8 19.6.8c.6 0 1 .5 1 1 0 .6-.4 1-.9 1zM-951.7 1993.8l-19.1-.8-18.9.8-19.1-.8-18.9.8-19.1-.8c-.6 0-1-.5-1-1 0-.6.5-1 1-1l19 .8 18.9-.8 19.1.8 18.9-.8 19.1.8c.6 0 1 .5 1 1 .1.6-.3 1-.9 1zM-957.5 1986.7c-.1 0-.1 0 0 0l-17.9-.8-17.7.8-17.9-.8-17.7.8-17.9-.8c-.6 0-1-.5-1-1 0-.6.5-1 1-1l17.8.8 17.7-.8 17.9.8 17.7-.8 17.9.8c.6 0 1 .5 1 1s-.4 1-.9 1z"/><path fill="#FFF" d="M-989.1 1964.1l-8.7 1-8.5 1.8-8.5 1-8.7 1.7-1-8.7-1.7-8.4-1-8.6-1.7-8.5 8.7-1.1 8.5-1.7 8.5-1 8.7-1.7 1 8.7 1.7 8.4 1 8.5z"/><path fill="#B2B2B2" d="M-1023.5 1970.6c-.2 0-.4-.1-.6-.2-.2-.2-.4-.4-.4-.7l-1-8.7-1.7-8.3-1-8.6-1.7-8.5c-.1-.3 0-.6.2-.8.2-.2.4-.4.7-.4l8.7-1 8.4-1.7 8.7-1 8.5-1.7c.3-.1.6 0 .8.2.2.2.4.4.4.7l1 8.7 1.7 8.3 1 8.6 1.7 8.5c.1.3 0 .6-.2.8-.2.2-.4.4-.7.4l-8.7 1-8.4 1.7-8.7 1-8.5 1.7h-.2zm-4.2-34.4l1.5 7.5 1 8.6 1.7 8.3.9 7.7 7.5-1.5 8.7-1 8.4-1.7 7.7-.9-1.5-7.5-1-8.6-1.7-8.3-.9-7.7-7.5 1.5-8.7 1-8.4 1.7-7.7.9z"/><path fill="#F2F2F2" d="M-994.7 1960.1l-6.3.6-6 1.4-6.2.6-6.2 1.3-.7-6.3-1.3-6-.6-6.1-1.3-6.2 6.3-.7 6-1.3 6.2-.6 6.2-1.3.7 6.2 1.3 6.1.6 6.1z"/><path fill="#B2B2B2" d="M-1019.4 1965c-.2 0-.4-.1-.6-.2-.2-.2-.4-.4-.4-.7l-.6-6.2-1.4-6v-.1l-.6-6.1-1.3-6.1c-.1-.3 0-.6.2-.8s.4-.4.7-.4l6.2-.7 6-1.4h.1l6.1-.6 6.1-1.3c.3-.1.6 0 .8.2.2.2.4.4.4.7l.6 6.2 1.4 6v.1l.6 6.1 1.3 6.1c.1.3 0 .6-.2.8-.2.2-.4.4-.7.4l-6.2.7-6 1.4h-.1l-6.1.6-6.1 1.3h-.2zm-1-13.4l1.3 6v.1l.5 5.2 5.1-1.1h.1l6.1-.6 6-1.4h.1l5.2-.5-1.1-5.1v-.1l-.6-6.1-1.3-6v-.1l-.5-5.2-5.1 1.1h-.1l-6.1.6-6 1.4h-.1l-5.2.5 1.1 5.1v.1l.6 6.1z"/><path fill="#FFF" d="M-973.3 1969.2l-9.3-1.8-9.2-1.1-9.1-1.8-9.3-1.2 1.8-9.2 1-9.1 1.8-9.1 1.2-9.3 9.2 1.8 9.2 1.1 9.1 1.8 9.4 1.1-1.8 9.2-1.1 9.2-1.8 9.1z"/><path fill="#B2B2B2" d="M-973.3 1970.2h-.2l-9.2-1.8-9.1-1-9.2-1.9-9.3-1.1c-.3 0-.5-.2-.7-.4-.2-.2-.2-.5-.2-.8l1.8-9.2 1-9.1 1.8-9.1 1.1-9.2c0-.3.2-.5.4-.7.2-.2.5-.2.8-.2l9.2 1.8 9.1 1 9.2 1.9 9.3 1.1c.3 0 .5.2.7.4.2.2.2.5.2.8l-1.8 9.2-1 9.1-1.8 9.1-1.1 9.2c0 .3-.2.5-.4.7-.2.1-.4.2-.6.2zm-35.7-7.7l8.3 1 9.2 1.9 9.1 1 8.3 1.6 1-8.2 1.8-9.1 1-9.1 1.6-8.2-8.3-1-9.2-1.9-9.1-1-8.3-1.6-1 8.2-1.8 9.1-1 9.1-1.6 8.2z"/><path fill="#A9E98F" d="M-979.7 1949.3l-8.3 7.1-5.9-12-8.5 8.5-2.2 6.3 27.2 4.3 1.2-9.4z"/><path fill="#B2B2B2" d="M-984.6 1962.2c-.4 0-.7-.2-.9-.5l-8.7-15.6-7.6 7.6c-.4.4-1 .4-1.4 0-.4-.4-.4-1 0-1.4l8.5-8.5c.2-.2.5-.3.8-.3.3 0 .6.2.7.5l9.3 16.8c.3.5.1 1.1-.4 1.4h-.3zm-2.8-5.6c-.3 0-.6-.1-.8-.4-.3-.4-.3-1.1.2-1.4l7.8-6.2c.2-.2.5-.2.8-.2.3 0 .5.2.7.4l3.5 4.8c.3.4.2 1.1-.2 1.4-.4.3-1.1.2-1.4-.2l-2.9-4-6.9 5.5c-.4.2-.6.3-.8.3z"/><circle fill="#96ECFF" cx="-984.6" cy="1942.3" r="3.7"/><path fill="#B2B2B2" d="M-977.3 1964.7h-.2l-6.8-1.4-6.8-.7h-.1l-6.7-1.5-6.9-.8c-.3 0-.5-.2-.7-.4-.2-.2-.2-.5-.2-.8l1.4-6.8.7-6.8v-.1l1.5-6.7.7-6.9c0-.3.2-.5.4-.7.2-.2.5-.2.8-.2l6.8 1.4 6.8.7h.1l6.7 1.5 6.9.8c.3 0 .5.2.7.4.2.2.2.5.2.8l-1.4 6.8-.7 6.8v.1l-1.5 6.7-.7 6.9c0 .3-.2.5-.4.7-.2.2-.4.2-.6.2zm-13.6-4.1l6.8.7h.1l5.8 1.2.6-5.9v-.1l1.5-6.7.7-6.8v-.1l1.2-5.8-5.9-.6h-.1l-6.7-1.5-6.8-.7h-.1l-5.8-1.2-.6 5.9v.1l-1.5 6.7-.7 6.8v.1l-1.2 5.8 5.9.6h.1l6.7 1.5z"/><path fill="#FFF" d="M-937.5 2174.3h1.6l.8-1.3.7-1.4-.4-19.6.4-19.6-.3-19.4-37.1-.4-37.3.4-37.3-.4.3 19.8-.4 19.6.4 19.6v1.6l1.3.8 1.4.7 35.3-.4 35.3.4z"/><path fill="#909090" d="M-1043.4 2176.2c-.3 0-.5-.1-.7-.2l-2.7-1.6c-.5-.3-.7-.8-.7-1.3v-1.6l-.4-19.6.4-19.7-.3-19.7c0-.4.2-.8.4-1.1.3-.3.6-.4 1.1-.4l37.3.4 37.2-.4 37.2.4c.8 0 1.5.7 1.5 1.5l.3 19.4-.4 19.7.4 19.5c0 .3-.1.5-.2.8l-1.6 2.7c-.3.5-.8.7-1.3.7l-36.9.4-35.3-.4-35.3.5zm35.3-3.4l35.3.4 35.3-.4h.7l.9-1.6-.4-19.2.4-19.7-.3-17.9-35.7-.4-37.2.4-35.8-.4.3 18.2-.4 19.7.4 20.3 1.6.9 34.9-.3z"/><path fill="#E0E0E0" d="M-941.8 2102.4l-32.5-.4-32.5.4-32.5-.4-3.5 1.3-2.8 2.4-.6 3.6-.4 1.2.4 1.1-.2 1.4 37.2-.4 37.3.4 37.2-.4.2-1-.4-1.1.4-1.2-1.3-3.4-2.4-2.9z"/><path fill="#909090" d="M-1046.4 2114.5c-.4 0-.8-.2-1.1-.5-.3-.3-.4-.8-.3-1.2l.2-1-.3-.8c-.1-.3-.1-.7 0-1l.4-1 .6-3.5c.1-.4.2-.7.5-.9l2.9-2.3c.1-.1.3-.2.4-.2l3.5-1.3c.2-.1.4-.1.6-.1l32.5.4 32.4-.4 32.5.4h.2l3.7.6c.4.1.7.2.9.5l2.3 2.9c.1.1.2.3.2.4l1.3 3.5c.1.3.1.7 0 1l-.2.7.2.7c.1.3.1.5 0 .8l-.2 1c-.1.7-.8 1.2-1.5 1.2l-37.2.4-37.3-.4-37.2.1zm37.2-3.4l37.3.4 35.7-.4v-.1c-.1-.3-.1-.7 0-1l.2-.6-1-2.7-1.8-2.3-3-.5-32.4-.4-32.4.4-32.2-.4-3 1.1-2.3 1.8-.5 3.1c0 .1 0 .2-.1.3l-.2.7.2.7c0 .1.1.2.1.3l35.4-.4z"/><path fill="#85E060" d="M-992.1 2155.2c1.7 0 3.2 1.4 3.2 3.2 0 1.2-.7 2.2-1.6 2.8 1.1 1.3 2.5 2.3 4.1 2.9.3-1.5 1.5-2.6 3.1-2.6s2.9 1.1 3.1 2.6c1.6-.6 3-1.6 4.1-2.9-1-.5-1.6-1.6-1.6-2.8 0-1.7 1.4-3.2 3.2-3.2.2 0 .5 0 .7.1v-.2c0-2-.6-3.8-1.6-5.3-.6.6-1.4.9-2.2.9-1.7 0-3.2-1.4-3.2-3.2 0-.5.1-1.1.4-1.5-.9-.3-1.9-.4-2.8-.4-1 0-1.9.2-2.8.4.2.4.4 1 .4 1.5 0 1.7-1.4 3.2-3.2 3.2-.9 0-1.7-.4-2.2-.9-1 1.5-1.6 3.3-1.6 5.3v.2c0-.1.2-.1.5-.1zm11.2-17.3c2.4-2.8 2.8-6.7 1.3-9.8l-5.4 6.3c-1.3 1.5-3.6 1.7-5.1.4-1.5-1.3-1.7-3.6-.4-5.1l5.4-6.3c-3.3-1-7.1 0-9.5 2.8-2.4 2.8-2.8 6.7-1.3 9.8l-17.1 19.5c-1.3 1.5-1.1 3.8.4 5.1 1.5 1.3 3.8 1.1 5.1-.4l17.1-19.5c3.3 1 7.1.1 9.5-2.8z"/><g fill="#FFF"><circle cx="-983.3" cy="2155" r="1.8"/><path d="M-983.3 2157.8c-1.5 0-2.8-1.2-2.8-2.8s1.2-2.8 2.8-2.8 2.8 1.2 2.8 2.8-1.3 2.8-2.8 2.8zm0-3.6c-.4 0-.8.3-.8.8 0 .4.3.8.8.8s.8-.3.8-.8c-.1-.4-.4-.8-.8-.8z"/></g><path fill="#FFF" d="M-1122.6 1977l-.4 10.6.4 10.6-.3 10.4-26.1.4-26.1-.4-26.3.4.3-15.5-.4-15.3.3-15.1 21.5-.4 21.5.4 21.6-.4"/><path fill="#909090" d="M-1148.9 2010.5l-26.2-.4-26.2.4c-.4 0-.8-.2-1.1-.4-.3-.3-.4-.7-.4-1.1l.3-15.5-.4-15.2.3-15.2c0-.8.7-1.5 1.5-1.5l21.5-.4 21.6.4 21.5-.4c.8 0 1.5.6 1.5 1.5 0 .8-.6 1.5-1.5 1.5l-21.6.4-21.6-.4-20 .3-.3 13.7.4 15.2-.3 14 24.7-.4 26.2.4 24.6-.4.2-9-.4-10.5v-.1l.4-10.6c0-.8.7-1.5 1.6-1.4.8 0 1.5.7 1.4 1.6l-.4 10.5.4 10.6-.3 10.5c0 .8-.7 1.4-1.5 1.5l-25.9.4zm-13.2-19.5c-.3 0-.6-.1-.9-.3l-13-9.2-13.3-8.4-12.9-9.2c-.7-.5-.8-1.4-.4-2.1.5-.7 1.4-.8 2.1-.4l12.9 9.1 13.2 8.4 12.1 8.6 8.2-5.9s.1 0 .1-.1l9.3-5.8 8.9-6.5c.7-.5 1.6-.3 2.1.3.5.7.3 1.6-.3 2.1l-8.9 6.5s-.1 0-.1.1l-9.3 5.8-9 6.5c-.2.4-.5.5-.8.5z"/><path fill="#85E060" d="M-1110.5 1964c0 2.4-1 4.5-2.1 6.4-1.1 2-2.5 3.9-4.5 5-1.9 1.1-4.2 1.4-6.6 1.4-2.4 0-4.7-.3-6.6-1.4-2-1.1-3.3-3.1-4.5-5-1.1-1.9-2.1-4-2.1-6.4 0-2.4 1-4.5 2.1-6.4 1.1-2 2.5-3.9 4.5-5 1.9-1.1 4.2-1.4 6.6-1.4s4.7.3 6.6 1.4c2 1.1 3.3 3.1 4.5 5 1.1 1.9 2.1 4 2.1 6.4z"/><path d="M-1124.5 1961.9l-1.3.3-.4-1.4 2.2-.7h1.2v7.8h-1.7v-6zm2.2 6.6h-2.7v-5.9l-1.2.3-.6-2.3 2.8-.8h1.7v8.7zm-1.7-1h.7v-6.8h-.6l-1.7.5.1.4 1.5-.4v6.3zM-1257.1 2174.1l42.4.4 42.5-.4 42.6.3-.4-29.9.4-29.8-.4-29.8-6.7-.2-7 .4-6.9-.4-.3-4.1.4-4.3-.2-4-5.5 3.9-5.1 4.6-5.5 3.9-30.1.4-30.1-.4-30 .3-.4 29.7.4 29.8z" fill="#FFF"/><path fill="#909090" d="M-1214.7 2176l-42.4-.4c-.8 0-1.5-.7-1.5-1.5l.1-29.6-.4-29.8.3-29.7c0-.8.7-1.5 1.5-1.5l30-.3 30.2.4 29.6-.4 5.1-3.6 5.1-4.5.1-.1 5.5-3.9c.4-.3 1-.4 1.5-.1.5.2.8.7.8 1.3l.2 4.1v.2l-.4 4.1.2 2.7 5.5.3 6.9-.4h.1l6.8.2c.8 0 1.4.7 1.4 1.5l.4 29.8-.4 29.8.3 29.9c0 .4-.2.6-.4.9-.3.3-.7.2-1.1.2l-42.6-.1-42.4.5zm-40.9-3.4l40.9.4 42.4-.4 41.1.4-.3-28.4.4-29.8-.4-28.3-5.3-.2-6.9.4h-.2l-6.9-.4c-.8 0-1.4-.6-1.4-1.4l-.3-4.1v-.3l.4-4.2-.1-1.2-3.2 2.3-5.1 4.5-.1.1-5.5 3.9c-.2.2-.5.3-.8.3l-30.1.4-30.2-.4-28.5.3-.3 28.2.4 29.8v28.1z"/><path fill="#BEBEBE" d="M-1201.7 2117.5c-.3 0-.5-.1-.7-.3l-5.5-5.5c-.4-.4-.4-1 0-1.4s1-.4 1.4 0l5.5 5.5c.4.4.4 1 0 1.4-.2.2-.5.3-.7.3zm-5.5 0c-.3 0-.5-.1-.7-.3-.4-.4-.4-1 0-1.4l5.5-5.5c.4-.4 1-.4 1.4 0s.4 1 0 1.4l-5.5 5.5c-.2.2-.5.3-.7.3zm47.7 32.5c-.3 0-.5-.1-.7-.3l-7.6-7.6c-.4-.4-.4-1 0-1.4s1-.4 1.4 0l7.6 7.6c.4.4.4 1 0 1.4-.2.2-.5.3-.7.3zm-7.6 0c-.3 0-.5-.1-.7-.3-.4-.4-.4-1 0-1.4l7.6-7.6c.4-.4 1-.4 1.4 0s.4 1 0 1.4l-7.6 7.6c-.2.2-.5.3-.7.3z"/><path fill="#88EAFF" d="M-1231.6 2162.4c-.3 0-.7-.1-1-.3-.6-.5-.7-1.5-.2-2.1l5.8-7 .1-.1 6.3-6.5 5.7-7 .1-.1 6.3-6.4 5.8-7c.5-.6 1.4-.7 2-.3l2.7 1.9 2.9 1.2c.1 0 .2.1.3.2l2.5 1.9 2.8 1.2c.1 0 .2.1.3.2l1.7 1.2 4.7-5.1.1-.1 6-5.5 5.4-6 .1-.1 6-5.4 2.9-3.2-1-.2-1.2.3c-.2.1-.5.1-.7 0l-1.6-.4c-.8-.2-1.3-1-1.1-1.8s1-1.3 1.8-1.1l1.2.3 1.2-.3c.2-.1.5-.1.7 0l1.2.3 1.2-.3c.1 0 .3-.1.4 0l1.4.1c.6 0 1.1.4 1.3.9s.1 1.2-.3 1.6l-5.5 6-.1.1-6 5.4-5.4 6-.1.1-6 5.5-5.5 6.1c-.5.6-1.4.7-2 .2l-2.7-1.9-2.9-1.2c-.1 0-.2-.1-.3-.2l-2.5-1.9-2.8-1.2c-.1 0-.2-.1-.3-.2l-1.7-1.2-5 6-.1.1-6.3 6.4-5.7 7-.1.1-6.3 6.5-5.8 7c.2.1-.3.3-.7.3zm73.1-46.4h-.4c-.8-.2-1.3-1-1.1-1.8l.3-1.3-.3-1.3c-.1-.2-.1-.5 0-.7l.3-1.3-.3-1.3c-.1-.2-.1-.5 0-.7l.4-1.6c.2-.8 1-1.3 1.8-1.1.8.2 1.3 1 1.1 1.8l-.3 1.3.3 1.3c.1.2.1.5 0 .7l-.3 1.3.3 1.3c.1.2.1.5 0 .7l-.4 1.7c-.1.5-.7 1-1.4 1z"/><path fill="#BEBEBE" d="M-1146.8 2106.5c-.9 0-1.7 0-2.4-.4-.5-.2-.7-.7-.5-1.2.2-.5.8-.7 1.3-.4.5.2 1 .4 1.6.4.6 0 1 .3 1 .8s-.4.8-1 .8zm4.2-2.3c-.1 0-.3 0-.4-.1-.5-.2-.7-.8-.5-1.3.2-.5.4-1 .4-1.6 0-.6.4-.9 1-.9s1 .1 1 1.1h-1l1-.2c0 .9-.2 1.6-.6 2.4-.2.5-.5.6-.9.6zm-8.6-2c-.6 0-.8-.4-.8-1 0-.8 0-1.7.3-2.4.2-.5.7-.7 1.2-.5.5.2.7.8.4 1.3-.2.5-.3 1-.3 1.6.1.6-.3 1-.8 1zm6.4-4.2c-.1 0-.3 0-.4-.1-.5-.2-1-.3-1.6-.3-.6 0-1-.5-1-1s.4-1 1-1c.8 0 1.6.2 2.4.6.5.2.7.8.5 1.3-.2.3-.5.5-.9.5zm-93.5 5h-.2l-2.3-.4-2.3.4h-.5l-2.5-.4c-.8-.1-1.4-.9-1.2-1.7.1-.8.9-1.4 1.7-1.2l2.3.4 2.3-.4h.5l2.5.4c.8.1 1.4.9 1.2 1.7-.2.6-.8 1.2-1.5 1.2zm0 12.6h-.2l-2.3-.4-2.3.4h-.5l-2.5-.4c-.8-.1-1.4-.9-1.2-1.7.1-.8.9-1.4 1.7-1.2l2.3.4 2.3-.4h.5l2.5.4c.8.1 1.4.9 1.2 1.7-.2.6-.8 1.2-1.5 1.2zm0 13.4h-.2l-2.3-.4-2.3.4h-.5l-2.5-.4c-.8-.1-1.4-.9-1.2-1.7.1-.8.9-1.4 1.7-1.2l2.3.4 2.3-.4h.5l2.5.4c.8.1 1.4.9 1.2 1.7-.2.7-.8 1.2-1.5 1.2zm0 12.6h-.2l-2.3-.4-2.3.4h-.5l-2.5-.4c-.8-.1-1.4-.9-1.2-1.7.1-.8.9-1.4 1.7-1.2l2.3.4 2.3-.4h.5l2.5.4c.8.1 1.4.9 1.2 1.7-.2.7-.8 1.2-1.5 1.2zm0 12.7h-.2l-2.3-.4-2.3.4h-.5l-2.5-.4c-.8-.1-1.4-.9-1.2-1.7s.9-1.4 1.7-1.2l2.3.4 2.3-.4h.5l2.5.4c.8.1 1.4.9 1.2 1.7-.2.6-.8 1.2-1.5 1.2z"/><path fill="#55AE26" d="M-1160.3 2162.7l-18-.4-17.8.4-18-.4-18 .4c-.4 0-.8-.2-1.1-.4-.3-.3-.4-.7-.4-1.1l.3-12.5-.4-12.3.4-12.5-.4-12.3.4-12.5c0-.8.7-1.5 1.5-1.5s1.5.7 1.5 1.5l-.4 12.4.4 12.3-.4 12.5.4 12.3-.3 11 16.5-.3 18 .4 17.8-.4 18 .5 17.8-.3c.8 0 1.5.5 1.5 1.3s-.6 1.5-1.5 1.5l-17.8.4z"/></svg>